<svg xmlns="http://www.w3.org/2000/svg" xmlns:xlink="http://www.w3.org/1999/xlink" xmlns:a="http://ns.adobe.com/AdobeSVGViewerExtensions/3.0/" version="1.1" x="0px" y="0px" width="100px" height="100px" viewBox="-15.151 -11.675 100.0 135.0" enable-background="new -20.151 -1.675 100 100" xml:space="preserve">
<defs>
</defs>
<path display="none" fill="none" stroke="#000000" stroke-width="0.2277" stroke-linecap="round" stroke-linejoin="round" stroke-miterlimit="10" d="  M116.433,112.703c0.376-0.58,0.786-1.104,1.23-1.57 M114.429,153.363c1.936-1.344,3.77-2.197,5.488-2.551 M119.098,102.935  c0.273-0.147,0.398-0.409,0.375-0.786c-0.022-0.409-0.204-0.739-0.535-0.99c-2.471-1.4-3.837-1.059-4.076,1.025 M119.063,102.946  c-0.012,0-0.012,0-0.023-0.012 M119.04,102.935c0.012,0,0.034,0,0.058,0 M119.098,102.935c-0.012,0.012-0.023,0.012-0.034,0.012   M127.045,101.09c2.129-3.336,0.193-4.053-5.784-2.141c2.642,0.205,4.167,0.843,4.589,1.913 M126.1,102.354  c0.205,0.023,0.41,0.058,0.615,0.104c0.876,0.193,1.73,0.592,2.573,1.195c0.535,0.375,1.059,0.842,1.582,1.377l0.148,0.137  c0.444-0.045,0.74-0.342,0.899-0.877c-0.877-0.898-1.754-1.627-2.63-2.174c-0.752-0.467-1.503-0.809-2.243-1.025 M126.1,102.354  c-0.501-0.057-1.002-0.057-1.503,0.023 M127.045,101.09c-0.398-0.113-0.797-0.193-1.195-0.228 M119.575,103.322  c-0.011,0-0.011,0-0.011,0c-0.16-0.125-0.33-0.251-0.501-0.376 M119.575,103.322c0.058,0.079,0.16,0.17,0.296,0.295  c0.137,0.115,0.365,0.342,0.684,0.672 M117.583,103.641c-0.057-0.08-0.114-0.137-0.171-0.193c-0.66-0.74-1.515-1.162-2.551-1.264   M117.378,104.904c-0.012-0.057-0.012-0.102-0.022-0.148c-0.023-0.467,0.057-0.83,0.228-1.115 M117.48,105.383  c-0.046-0.148-0.08-0.308-0.103-0.479 M118.528,106.521c-0.137,0.012-0.262,0.033-0.388,0.045 M118.301,106.407  c-0.058,0.058-0.103,0.103-0.16,0.159 M120.11,106.727c-0.467,0.033-0.865,0-1.207-0.08c-0.136-0.034-0.262-0.068-0.375-0.125   M118.528,106.521c-0.08-0.034-0.16-0.068-0.228-0.114 M118.301,106.407c-0.399-0.33-0.672-0.671-0.82-1.024 M117.663,111.133  c1.571-0.581,2.698-1.469,3.37-2.676c0.683-1.537,0.523-2.926-0.479-4.168 M122.138,116.689c-0.513,0.011-1.002,0.387-1.446,1.127  c1.024,0.74,1.628,1.628,1.811,2.664c0.648-0.945,0.877-1.822,0.694-2.607C123.003,117.076,122.649,116.678,122.138,116.689  L122.138,116.689z M113.758,116.563l0.011-0.011c0.513-0.354,1.024-0.547,1.56-0.592c0.354-0.035,0.706,0,1.07,0.102  c0.923,0.25,1.412,0.034,1.446-0.637c0.012-0.467-0.205-0.729-0.648-0.798 M117.082,120.594c-0.034,0.046-0.057,0.092-0.091,0.148  c-0.217,0.41-0.262,0.82-0.148,1.23c0.137,0.409,0.41,0.705,0.809,0.876s0.819,0.183,1.252,0.011  c0.444-0.17,0.774-0.455,0.991-0.865c0.216-0.409,0.262-0.819,0.125-1.24c-0.125-0.41-0.398-0.706-0.797-0.877  s-0.82-0.182-1.264-0.012C117.583,120.014,117.299,120.264,117.082,120.594L117.082,120.594z M117.196,114.628  c-0.058-0.011-0.126-0.011-0.194-0.011 M117.492,120.981c0.944-0.079,1.582,0.205,1.924,0.865  C119.132,120.891,118.482,120.605,117.492,120.981L117.492,120.981z M125.564,124.386c-0.66,0.126-1.412,0.126-2.266-0.022  c0.626-0.523,1.07-1.15,1.344-1.879c-1.104,1.241-2.414,1.73-3.917,1.469c0.706-0.547,1.185-1.104,1.435-1.686  c-1.742,1.446-3.644,1.662-5.682,0.627 M117.196,114.628c4.839-0.079,7.628,3.165,8.368,9.758 M125.975,125.251  c0.444-0.444,0.831-0.968,1.161-1.571c-0.444,0.354-0.968,0.581-1.571,0.706 M128.946,111.827c0.922,0.672,1.833,1.64,2.732,2.88   M121.044,112.545c1.526-0.092,3.086,0.672,4.691,2.299c2.869,2.893,4.213,7.037,4.03,12.423 M128.946,111.827  c-2.493-1.788-5.124-1.548-7.902,0.718 M121.044,112.545c-1.309,0.079-2.596,0.773-3.848,2.083 M124.597,102.377  c0.057,2.357-0.284,4.121-1.036,5.316c2.414-1.582,3.7-2.664,3.86-3.244c0.103-0.398-0.331-1.094-1.321-2.096 M145.786,119.125  c0.046,0.046,0.091,0.092,0.137,0.148c0.455,0.479,1.002,0.717,1.65,0.717c0.615,0,1.15-0.216,1.595-0.66  c0.022-0.012,0.045-0.033,0.057-0.057c0.455-0.467,0.684-1.025,0.684-1.696c0-0.672-0.229-1.241-0.684-1.72  c-0.012-0.022-0.034-0.045-0.057-0.057c-0.444-0.422-0.979-0.638-1.595-0.638c-0.648,0-1.195,0.228-1.65,0.694  c-0.444,0.479-0.672,1.048-0.672,1.72c0,0.456,0.103,0.865,0.318,1.218 M145.569,118.795c0.058,0.114,0.137,0.229,0.217,0.33   M145.569,118.795c-2.083,3.166-4.611,2.768-7.583-1.184c-2.835-3.77-5.853-5.693-9.04-5.784 M119.04,102.935  c-0.717,0.034-1.195,0.263-1.457,0.706 M120.555,104.289c1.378-1.081,2.722-1.719,4.042-1.912 M125.85,100.862  c-2.106-0.216-4.202,0.604-6.274,2.46 M140.719,154.377c1.937,1.207,3.906,1.81,5.91,1.81c0.876,0,1.719-0.057,2.539-0.159  c3.108-0.398,5.829-1.571,8.163-3.507c2.949-2.437,4.452-5.386,4.486-8.858s-1.286-6.434-3.962-8.857  c-1.128-1.025-2.301-1.868-3.519-2.528c-1.799-0.819-3.519-1.39-5.169-1.696c-0.034-0.012-0.08-0.012-0.114-0.023  c-2.505-0.467-4.839-0.363-7.002,0.33c-0.422,0.125-0.82,0.251-1.207,0.365c-0.012,0-0.012,0-0.012,0.012  c-0.193,0.057-0.387,0.113-0.581,0.17 M151.058,135.874c-0.626-0.626-1.264-1.195-1.89-1.685c-2.597-2.072-5.146-3.041-7.651-2.893   M141.517,131.297c-0.092,0-0.183,0-0.273,0.012c-0.308,0.034-0.615,0.08-0.923,0.137c-0.022-0.012-0.045-0.012-0.068-0.012   M136.473,132.401c-1.378-0.011-2.357-0.284-2.938-0.808c1.912,0.227,3.518-0.08,4.827-0.912c1.31-0.842,2.722-1.662,4.213-2.459  s3.063-0.717,4.726,0.229c-1.902-2.744-4.11-3.451-6.649-2.118c-1.891,0.979-3.428,1.525-4.601,1.628  c0.501-0.422,0.865-0.91,1.082-1.469 M140.252,131.434c-0.648,0.193-1.286,0.364-1.89,0.513c-0.66,0.171-1.286,0.33-1.89,0.455   M133.228,141.396c0.683-0.717,1.503-0.877,2.471-0.49c1.286,0.74,1.332,1.583,0.159,2.551c-0.877,0.479-1.469,1.162-1.776,2.061   M141.517,131.297c2.596,0.262,4.68,1.503,6.262,3.724 M137.133,126.492c0.103-0.25,0.171-0.512,0.216-0.774  c-1.274,1.344-2.481,2.288-3.632,2.823c1.219-1.104,1.799-3.017,1.754-5.761c-0.524,3.883-1.708,5.978-3.564,6.274  c-0.034,0-0.068,0-0.103,0.011c-1.059,0.068-2.061-0.262-3.006-0.979c1.663-0.17,2.722-0.819,3.177-1.924  c-0.74,0.638-1.479,1.002-2.209,1.104 M105.491,126.516c-0.706,1.57-0.843,3.609-0.421,6.102c0.342-1.127,0.74-2.094,1.207-2.88  c-0.649,3.245,0.842,6.114,4.475,8.608c-0.251-0.707-0.342-1.48-0.262-2.335c3.176,3.313,7.195,4.372,12.057,3.153  c-1.525-0.125-2.755-0.614-3.7-1.469c2.995,0.889,5.796,0.65,8.403-0.705c0.205-0.114,0.409-0.217,0.626-0.318  c1.4-0.695,2.63-1.185,3.712-1.469 M131.588,135.203c0.672-0.184,1.286-0.285,1.833-0.297c-0.296-0.125-0.694-0.217-1.195-0.273   M136.473,132.401c-1.39,0.308-2.631,0.501-3.712,0.604c-2.38,0.216-4.27,0.797-5.659,1.765c2.255-0.228,3.963-0.273,5.124-0.137   M125.975,125.251c-1.605,1.56-3.929,1.981-6.979,1.275c0.262,0.251,0.626,0.444,1.07,0.581c-0.569-0.012-1.082-0.046-1.549-0.125  c-0.08-0.012-0.148-0.035-0.228-0.047 M124.984,140.838c0.057-0.033,0.125-0.057,0.182-0.09c1.024-0.479,2.517-0.398,4.463,0.227   M123.379,145.393c0.375-0.262,0.785-0.5,1.229-0.729 M125.701,146.042c-0.148-0.342-0.296-0.626-0.467-0.843 M125.234,145.199  c-0.193-0.25-0.41-0.433-0.626-0.535 M124.608,144.664c-0.262-0.125-0.535-0.148-0.843-0.08 M123.583,142.877  c-0.489,0.672-0.558,1.514-0.204,2.516 M123.379,145.393c-0.718,0.49-1.321,1.025-1.811,1.605 M121.568,146.998  c-0.854-1.07-0.957-2.482-0.308-4.225 M124.984,140.838c-0.706,0.388-1.173,1.07-1.401,2.039 M142.29,141.215  c-3.598-2.289-7.036-2.813-10.304-1.572c0.012,0.012,0.022,0.023,0.034,0.035 M132.021,139.678c0.501,0.398,0.899,0.967,1.207,1.719   M132.646,142.159c0.183-0.308,0.376-0.558,0.581-0.763 M129.22,138.709c-0.012-0.033-0.023-0.057-0.034-0.08 M129.151,138.697  c0.022,0,0.045,0,0.068,0.012 M129.22,138.709c0.239,0.035,0.478,0.092,0.74,0.148c0.831,0.205,1.514,0.479,2.061,0.82   M129.186,138.629c-0.012,0.023-0.023,0.047-0.034,0.068 M126.054,147.021c-0.011-0.035-0.022-0.057-0.034-0.092  c-0.022-0.057-0.045-0.102-0.057-0.159c-0.079-0.262-0.171-0.513-0.262-0.729 M134.081,145.518c0.33,0.422,0.479,0.889,0.444,1.412   M134.081,145.518c-0.079-0.125-0.171-0.238-0.262-0.363 M133.819,145.154c0.137-0.422,0.217-0.865,0.239-1.344 M133.819,145.154  c-0.467,1.389-1.56,2.413-3.29,3.074c-2.403,0.693-3.895,0.284-4.476-1.207 M123.583,142.877c0.889-1.025,2.699-1.07,5.42-0.125   M131.588,135.203c-0.991,0.944-1.788,2.094-2.402,3.426 M129.151,138.697c-1.97-0.284-3.359,0.434-4.167,2.141 M131.599,154.535  c0.559,0.126,1.082,0.035,1.571-0.272c0.058-0.034,0.126-0.08,0.183-0.126c0.284-0.273,0.547-0.546,0.774-0.83  c0.034-0.035,0.057-0.068,0.091-0.104c0.592-0.785,0.945-1.639,1.059-2.539 M134.525,146.93c-0.034,0.467-0.193,0.969-0.501,1.515  c-0.66,1.149-1.845,1.925-3.563,2.312c-2.277,0.342-3.724-0.125-4.327-1.4 M125.906,153.512c0.103-0.058,0.228-0.104,0.353-0.16  c0.899-0.398,1.697-0.387,2.414,0.012c0.626,0.353,0.865,0.934,0.74,1.754 M126.134,149.355c0.342,1.298,1.253,2.231,2.722,2.801  c1.946,0.604,2.857,1.389,2.743,2.357c0,0.011,0,0.011,0,0.021 M129.003,156.244c-0.011,0.011-0.022,0.033-0.034,0.045   M128.969,156.289c0.012,0,0.034,0,0.046,0c1.594-0.25,2.459-0.831,2.584-1.754 M122.399,157.53c0.216,0.171,0.455,0.33,0.706,0.489  c0.626,0.354,1.32,0.125,2.095-0.694c0.615-0.614,1.389-0.819,2.323-0.614c0.592,0.125,1.059,0.011,1.389-0.354  c0.012-0.022,0.034-0.045,0.057-0.068 M129.413,155.117c-0.012,0.125-0.046,0.25-0.08,0.375c-0.079,0.308-0.193,0.559-0.33,0.752   M129.003,156.244c0.364-1.311-0.011-1.981-1.127-2.016c-0.376-0.023-0.74,0.034-1.082,0.17c-0.683,0.263-1.298,0.798-1.833,1.629  c-0.819,1.241-1.674,1.742-2.562,1.503 M132.191,159.648c2.869-1.219,4.281-2.004,4.224-2.334c-1.059-0.513-3.188-0.444-6.41,0.182  c-0.125,0.706,0.046,1.332,0.513,1.879 M132.191,159.648c-0.535-0.125-1.094-0.217-1.674-0.273 M131.599,154.535  c-0.079-0.717-0.808-0.523-2.186,0.582 M124.506,153.898c0.239,0.022,0.706-0.103,1.4-0.387 M119.917,150.813  c-0.125,0.979-0.068,2.038,0.159,3.188c0.342,1.424,1.116,2.607,2.323,3.53 M122.81,161.561c0.558-0.182,1.093-0.342,1.628-0.479   M119.678,161.401c-0.353,0.137-0.717,0.284-1.07,0.433 M119.678,161.401c1.595-2.517,2.072-3.837,1.424-3.95l-3.143,3.29  c-0.364,0.581-0.148,0.944,0.648,1.093 M118.607,161.834c-0.216,0.092-0.421,0.182-0.626,0.273  c-4.862,2.084-8.881,3.074-12.058,2.949 M117.435,168.552c-0.034-0.022-0.057-0.046-0.091-0.068 M114.225,164.84  c1.469-0.489,3.006-1.093,4.634-1.787c1.378-0.592,2.698-1.094,3.951-1.492 M129.721,164.328c-0.068,0-0.137,0-0.205-0.012   M129.516,164.316c-5.408-0.262-7.64-1.184-6.706-2.756 M129.516,164.316c-2.346-0.672-4.042-1.754-5.078-3.234 M130.518,159.375  c-2.994-0.285-6.604,0.387-10.84,2.026 M135.276,150.664c0.467,0.797,1.07,1.48,1.811,2.05c1.07,0.819,2.277,1.378,3.632,1.663   M140.719,154.377c0.74,0.158,1.515,0.238,2.346,0.238c1.72,0,3.257-0.342,4.611-1.035 M125.234,145.199  c-2.3,1.776-3.313,3.814-3.028,6.125 M119.917,150.813c0.171-1.445,0.718-2.721,1.651-3.814 M132.226,134.633  c1.184-0.99,2.596-1.73,4.247-2.231 M132.021,139.678c3.484-0.969,7.207,1.023,11.158,5.954 M135.276,150.664  c0.137-1.149-0.113-2.391-0.751-3.734 M125.906,153.512c-2.517-2.768-2.585-5.25-0.205-7.47 M126.054,147.021  c-0.125,0.877-0.103,1.662,0.08,2.334 M124.438,161.082c7.15-1.912,12.046-0.409,14.677,4.521c-1.503-3.223-3.814-5.215-6.923-5.955   M118.141,106.566c-1.855,0.262-2.676,1.002-2.447,2.244 M117.082,120.594c-0.604-0.934-1.207-1.559-1.821-1.867 M116.479,122.895  c0.091-0.125,0.183-0.251,0.262-0.387 M116.08,105.121c0.581,0.318,1.014,0.25,1.298-0.217 M118.289,126.936  c-2.915,1.117-4.816,0.434-5.716-2.049 M114.36,124.625c0.41,1.082,1.196,1.844,2.357,2.289c-0.342-0.33-0.592-0.752-0.752-1.275  c0.501,0.637,1.275,1.07,2.323,1.297 M112.437,165.387c-0.763,1.229,0.865,2.266,4.907,3.097 M117.663,111.133  c-0.501,0.182-1.048,0.33-1.651,0.455 M114.429,153.363c1.492-1.822,2.927-4.361,4.305-7.629 M117.48,105.383  c-1.799,1.765-3.723,3.291-5.762,4.6 M89.653,120.116c-3.006,2.243-5.237,4.862-6.694,7.856 M108.611,123.475  c-1.469,0.66-2.506,1.674-3.12,3.041 M107.757,113.684c-2.517,3.518-3.997,7.855-4.417,13.036 M96.121,117.986  c-4.68,2.301-8.096,5.182-10.248,8.631 M103.34,126.72c0.488-0.603,1.24-1.127,2.254-1.56 M81.262,133.518  c-1.514,1.15-2.903,3.279-4.167,6.41 M93.115,130.818c2.345-1.924,5.727-3.256,10.145-3.996 M112.835,154.012  c-0.843-7.264-4.11-13.583-9.792-18.945 M87.695,146.668c-0.456,0.729-0.969,1.32-1.537,1.787 M92.146,146.565  c2.71-1.229,4.623-0.581,5.75,1.958c1.116,2.539,1.436,5.136,0.957,7.777c-0.422,2.357-1.412,3.438-2.949,3.244 M88.436,153.396  c0.535-3.381,1.764-5.658,3.711-6.831 M98.693,161.037c-0.216,0.08-0.432,0.137-0.648,0.193c0.17-0.148,0.33-0.307,0.489-0.479   M98.99,164.602c-0.718-0.524-1.344-1.162-1.891-1.914 M98.534,160.752c-0.159-0.284-0.308-0.592-0.444-0.91 M92.146,146.565  c2.187-1.981,5.215-1.924,9.074,0.159 M105.924,165.057c2.698-1.651,3.859-2.722,3.496-3.199c-4.464,0.307-6.263,1.297-5.397,2.971   M98.534,160.752c0.535-0.604,0.923-1.365,1.185-2.266c-0.502,0.604-1.048,1.048-1.629,1.355 M98.99,164.602  c3.006,2.209,7.492,2.471,13.446,0.785 M107.609,154.126c-1.082-1.241-2.107-2.802-3.098-4.69  c-3.268-6.252-8.266-10.498-14.995-12.753 M117.344,168.483c-0.569-0.467-1.127-1.206-1.674-2.22  c-0.375-0.695-0.865-1.174-1.445-1.424 M112.437,165.387c0.581-0.171,1.173-0.354,1.788-0.547 M98.693,161.037  c0.945-0.375,1.662-1.082,2.129-2.117c0.114,1.172-0.09,1.992-0.614,2.459c1.173-0.535,1.97-1.241,2.414-2.118  c0.239,0.763,0.228,1.378-0.046,1.833c0.433-0.33,0.945-0.66,1.537-0.99 M104.022,164.828c-2.368-0.489-4.145-1.753-5.329-3.791   M129.766,127.267c-1.286,0.171-2.55-0.501-3.791-2.016 M137.133,126.492c3.678-0.342,6.559-2.801,8.653-7.367 M97.464,168.358  c0.148-0.763,0.513-1.605,1.07-2.517c0.239-0.41,0.398-0.819,0.456-1.24 M105.924,165.057c-0.672-0.023-1.31-0.103-1.901-0.229   M103.316,156.141c-0.296,0.251-0.443,0.559-0.443,0.912c0,0.352,0.147,0.66,0.443,0.91s0.648,0.376,1.07,0.376  s0.774-0.126,1.07-0.376s0.443-0.558,0.443-0.91c0-0.354-0.147-0.661-0.443-0.912c-0.296-0.25-0.648-0.375-1.07-0.375  S103.612,155.891,103.316,156.141L103.316,156.141z M100.242,153.021c-0.228,0.262-0.342,0.58-0.342,0.957  c0,0.375,0.114,0.683,0.342,0.944s0.501,0.398,0.831,0.398c0.331,0,0.604-0.137,0.831-0.398c0.229-0.262,0.342-0.569,0.342-0.944  c0-0.377-0.113-0.695-0.342-0.957c-0.228-0.262-0.5-0.387-0.831-0.387C100.743,152.635,100.47,152.76,100.242,153.021  L100.242,153.021z M103.055,151.177c-0.193,0.159-0.285,0.353-0.285,0.569s0.092,0.41,0.285,0.559  c0.193,0.158,0.433,0.238,0.705,0.238c0.273,0,0.502-0.08,0.695-0.238c0.193-0.148,0.296-0.342,0.296-0.559s-0.103-0.41-0.296-0.569  c-0.193-0.147-0.422-0.228-0.695-0.228C103.487,150.949,103.248,151.029,103.055,151.177L103.055,151.177z M113.654,154.229  c0.263-0.262,0.513-0.559,0.774-0.865 M113.654,154.229c-0.284-0.057-0.557-0.137-0.819-0.217 M104.113,160.104  c3.814,1.514,7.242,1.822,10.293,0.899c3.04-0.923,4.497-2.187,4.35-3.813c-0.148-1.629-1.195-2.528-3.143-2.676  c-0.706-0.058-1.355-0.148-1.959-0.285 M115.853,157.383c-0.524,0.113-1.036,0.182-1.537,0.193 M104.113,160.104  c0.455-0.262,1.036-0.523,1.73-0.809c0.513-0.193,0.979-0.421,1.4-0.672c1.037-0.626,1.891-1.457,2.563-2.493  c-0.695-0.478-1.355-1.07-2.004-1.788c-0.068-0.079-0.137-0.147-0.193-0.216 M114.315,157.576c-1.298,0.022-2.539-0.297-3.735-0.957  c-0.011,0-0.011,0-0.011,0.012c-0.672,1.025-1.537,1.901-2.597,2.619C110.443,159.375,112.551,158.816,114.315,157.576  L114.315,157.576z M100.812,136.729c3.394,2.63,5.989,6.66,7.788,12.104c0.684,2.061,1.469,3.494,2.357,4.292  c0.535,0.364,1.16,0.66,1.878,0.888 M91.691,159.808c-0.615-2.084-1.776-3.473-3.496-4.19 M83.266,157.074  c0.046,2.039,1.082,3.553,3.108,4.543 M95.676,160.023c0.08-0.159,0.148-0.318,0.229-0.479 M89.643,162.631  c-1.287-0.238-2.369-0.568-3.269-1.014 M92.738,163.27c1.174-0.707,2.118-1.721,2.824-3.029 M86.716,162.016  c-0.854,2.256,0.079,3.553,2.801,3.906c1.811,0.012,2.881-0.865,3.222-2.652 M97.1,162.688c-0.854,0.49-0.729,2.381,0.364,5.671   M97.464,168.358c-0.011,0.034-0.011,0.079-0.022,0.114 M93.115,161.596c-0.24-0.832-0.718-1.436-1.424-1.788 M92.146,162.381  c-0.08-0.945-0.228-1.811-0.455-2.573 M92.738,163.27c0.023-0.16,0.046-0.319,0.068-0.49 M95.563,160.24  c0.068,0.012,0.137,0.012,0.217,0.022 M95.779,160.263c0.363,0.911,0.809,1.72,1.32,2.425 M95.563,160.24  c0.034-0.068,0.08-0.137,0.113-0.217 M98.09,159.842c-0.705,0.364-1.479,0.501-2.311,0.421 M95.779,160.263  c-0.035-0.079-0.068-0.159-0.104-0.239 M86.374,161.617c0.103,0.137,0.216,0.273,0.342,0.398 M86.716,162.016  c0.308,0.309,0.694,0.582,1.161,0.82 M86.158,148.455c-0.889,0.707-1.913,1.094-3.086,1.162c0.797-0.547,1.435-1.15,1.924-1.799   M88.195,155.617c0.058-0.785,0.137-1.525,0.24-2.221 M84.644,156.631c-0.513,0.262-0.968,0.41-1.378,0.443 M89.016,158.396  c-0.103,0.022-0.205,0.058-0.308,0.114c-0.079,0.033-0.147,0.08-0.204,0.137c-0.012,0.012-0.012,0.012-0.023,0.022  c-0.148,0.137-0.25,0.296-0.285,0.467 M88.195,159.136c-0.021,0.068-0.033,0.137-0.033,0.216c0,0.273,0.113,0.502,0.342,0.695  c0.238,0.193,0.512,0.296,0.842,0.296s0.604-0.103,0.832-0.296c0.079-0.057,0.136-0.125,0.193-0.193 M86.579,157.814  c-0.147,0.16-0.228,0.342-0.228,0.559c0,0.25,0.113,0.467,0.342,0.637c0.205,0.172,0.443,0.263,0.717,0.285c0.034,0,0.08,0,0.125,0  c0.239,0,0.467-0.057,0.66-0.159 M84.644,156.631c-0.058,0.125-0.079,0.25-0.079,0.398c0,0.308,0.113,0.569,0.341,0.785  c0.239,0.217,0.513,0.33,0.843,0.33s0.604-0.113,0.831-0.33 M87.535,157.439c-0.045,0-0.091,0-0.125,0.012  c-0.034,0-0.057,0-0.091,0.011c-0.239,0.022-0.444,0.103-0.626,0.251c-0.023,0.022-0.046,0.045-0.068,0.068  c-0.012,0.011-0.023,0.011-0.035,0.022c0,0.011,0,0.011-0.011,0.011 M85.736,155.914c-0.387,0.295-0.752,0.535-1.093,0.717   M88.195,155.617c-0.443-0.193-0.934-0.33-1.469-0.421c-1.685-1.64-3.199-2.267-4.554-1.867c-1.149,0.513-1.366,1.469-0.649,2.88  c0.444,0.627,1.025,0.923,1.742,0.865 M86.158,148.455c-0.388,1.447-0.456,2.869-0.193,4.293c0.307-0.854,0.717-1.617,1.229-2.277  c0.229,1.219,0.639,2.187,1.242,2.926 M95.904,159.545c1.002-2.266,1.4-5.294,1.195-9.097 M85.384,137.035  c0.341,0.695,0.569,1.378,0.694,2.072 M107.609,154.126c-0.934-1.173-1.72-2.722-2.369-4.669c-1.879-5.692-4.656-9.779-8.357-12.273  c-2.687-1.787-5.123-1.98-7.32-0.58 M91.532,141.863c-0.263,0.25-0.399,0.547-0.399,0.899s0.137,0.649,0.399,0.888  c0.262,0.251,0.581,0.376,0.956,0.376c0.376,0,0.695-0.125,0.957-0.376c0.262-0.238,0.398-0.535,0.398-0.888  s-0.137-0.649-0.398-0.899c-0.262-0.239-0.581-0.364-0.957-0.364C92.113,141.499,91.794,141.624,91.532,141.863L91.532,141.863z   M90.154,139.404c-0.262,0.147-0.387,0.33-0.387,0.546s0.125,0.388,0.387,0.535s0.569,0.228,0.934,0.228s0.672-0.08,0.934-0.228  s0.387-0.319,0.387-0.535s-0.125-0.398-0.387-0.546c-0.262-0.148-0.569-0.217-0.934-0.217S90.416,139.256,90.154,139.404  L90.154,139.404z M85.555,142.91c-0.444-0.17-1.059-0.295-1.845-0.353c0.944-0.057,1.662-0.204,2.151-0.444 M82.537,146.668  c0.626-0.82,1.332-1.56,2.129-2.221 M83.914,146.121c0.263,0.672,0.627,1.242,1.082,1.697 M88.686,146.395  c0,0.273,0.103,0.502,0.308,0.695c0.216,0.193,0.467,0.284,0.763,0.284s0.547-0.091,0.752-0.284  c0.216-0.193,0.318-0.422,0.318-0.695s-0.103-0.5-0.318-0.694c-0.205-0.193-0.456-0.284-0.752-0.284s-0.547,0.091-0.763,0.284  C88.788,145.895,88.686,146.121,88.686,146.395L88.686,146.395z M84.996,147.818c0.434-0.592,0.74-1.219,0.911-1.891  c-0.558-0.102-1.229-0.045-1.993,0.193 M85.555,142.91c-0.239,0.514-0.535,1.025-0.889,1.537 M84.666,144.447  c0.49-0.398,1.002-0.785,1.537-1.139c-0.148-0.158-0.364-0.295-0.648-0.398 M82.241,147.078c0.204-0.182,0.409-0.364,0.604-0.559   M81.273,147.875c0.33-0.262,0.66-0.535,0.968-0.797"/>
<path d="M47.842,12.289c-2.425-2.174-5.081-3.82-7.964-4.965c-3.295-1.306-6.889-1.969-10.779-1.993  c-5.401,0.024-10.229,1.306-14.464,3.846c-1.488,0.892-2.884,1.923-4.234,3.112c-1.144,1.03-2.151,2.107-3.044,3.228l-0.732,0.916  c-0.503,0.663-0.777,1.19-0.847,1.579l6.545-0.206l0.069,14.669c-0.022,0.047-0.045,0.091-0.045,0.162v4.462l-9.681,0.183  c-0.138,0-0.252,0.045-0.32,0.138c-0.092,0.091-0.138,0.205-0.138,0.343c0,0.114,0.045,0.229,0.138,0.32  c0.091,0.067,0.206,0.114,0.342,0.114l1.671-0.023l0.16,0.412c0.298,0.687,0.665,1.35,1.054,2.015  c0.045,0.091,0.091,0.182,0.16,0.274c0.023,0.022,0.023,0.022,0.045,0.045l0.961,1.442c0,0.022,0.024,0.069,0.069,0.114  c2.998,3.868,7.117,6.797,12.313,8.834c0.069,0.023,0.16,0.046,0.229,0.067c0.16,0.023,0.434,0.138,0.847,0.3  c0.321,0.158,0.618,0.251,0.892,0.296c0.504,0.182,1.328,0.412,2.449,0.71c1.351,0.411,3.296,0.847,5.814,1.281h-0.023  c2.242,0.389,4.439,1.122,6.569,2.198c0.021,0,0.021,0,0.045,0c2.013,0.914,3.708,2.127,5.103,3.614  c0.572,0.709,1.03,1.396,1.374,2.061h-0.022c0.687,1.396,1.03,2.952,1.03,4.668c0,1.854-0.436,3.548-1.282,5.127  c-0.412,0.71-0.847,1.304-1.305,1.809c-0.023,0.022-0.045,0.044-0.068,0.091c-0.367,0.458-0.825,0.916-1.351,1.396  c-2.77,2.449-6.11,3.662-10.023,3.641h-0.023c-3.868,0.044-7.208-1.145-10.024-3.548c-1.579-1.35-2.678-2.838-3.295-4.486v-0.022  c-0.16-0.344-0.274-0.709-0.343-1.075c0-0.023,0-0.069-0.023-0.093c-0.022-0.045-0.045-0.114-0.069-0.184  c-0.091-0.343-0.274-0.64-0.572-0.845c-0.296-0.229-0.618-0.344-0.983-0.344h-9.68c-0.298,0-0.596,0.092-0.847,0.251  c-0.252,0.16-0.459,0.365-0.596,0.663c-0.138,0.253-0.184,0.551-0.16,0.87c0,0.069,0,0.162,0.022,0.229v0.023  C3.443,75.432,6.006,80.1,10.47,84.06c5.126,4.646,11.374,6.981,18.72,6.981c7.324,0,13.55-2.335,18.676-6.981v-0.021  c3.685-3.273,6.064-7.005,7.163-11.216v-0.021c0.458-1.924,0.687-3.846,0.687-5.768c0-4.234-1.054-8.078-3.136-11.512  c-0.023-0.023-0.023-0.047-0.045-0.069L51.55,54.01c-0.023-0.021-0.046-0.045-0.046-0.067c-2.403-3.137-5.424-5.584-9.086-7.3  c-0.229-0.115-0.458-0.229-0.687-0.321c-0.48-0.184-0.985-0.365-1.465-0.549c-3.548-1.281-7.231-2.311-11.099-3.068  c-1.9-0.435-3.869-1.098-5.951-2.013c-0.023-0.023-0.023-0.023-0.045-0.023c-0.045-0.022-0.092-0.045-0.138-0.067  c-1.167-0.596-1.991-1.03-2.449-1.282c-0.022-0.023-0.022-0.023-0.045-0.023c-1.305-0.845-2.403-1.739-3.273-2.7  c-0.549-0.619-0.983-1.306-1.326-2.013c-0.71-1.488-1.054-3.046-1.054-4.692c0-0.047,0-0.276,0.023-0.665  c0-0.413,0.022-0.457,0.091-0.115v-0.321c-0.572-0.021-1.145-0.044-1.67-0.067c0.708-4.051,1.19-6.59,1.441-7.597  c0.138-0.528,0.274-1.03,0.436-1.558c0.091-0.273,0.182-0.549,0.274-0.801c0.687-1.693,2.037-2.63,4.051-2.814h7.438  c0.047,0,0.092,0,0.114,0c0.115,0,0.229,0,0.343,0.023c0.436,0.045,0.87,0.206,1.259,0.503L42.327,27.51  c0.205,0.159,0.412,0.343,0.571,0.502c0.092,0.185,0.229,0.343,0.413,0.504c0.021,0.024,0.067,0.046,0.091,0.068  c0.252,0.205,0.572,0.298,0.938,0.298h9.637c0.296,0,0.594-0.093,0.847-0.251c0.25-0.162,0.457-0.39,0.594-0.663  c0.138-0.252,0.184-0.55,0.16-0.848C55.073,21.421,52.487,16.478,47.842,12.289L47.842,12.289z M15.801,16.433  c-0.022,0-0.045-0.069-0.114-0.207C15.756,16.364,15.779,16.433,15.801,16.433L15.801,16.433z"/>
<polygon points="35.324,10.872 35.324,0 22.69,0 22.713,10.872 35.324,10.872 "/>
<path d="M35.324,49.892H22.69l0.047,44.924c-0.023,0.505-0.023,0.939-0.047,1.305c0.138,0.023,0.276,0.047,0.412,0.047l11.809,0.274  c0.139,0,0.274,0,0.413-0.023V49.892L35.324,49.892z"/>
<path d="M30.083,31.285c-0.114,0-0.207,0-0.321,0c-2.196,0-4.073-0.732-5.606-2.197c-1.533-1.464-2.313-3.228-2.313-5.264  c0-0.252,0.023-0.527,0.045-0.777c0.023-0.229,0.047-0.458,0.092-0.664H21.02l-1.213,3.982c0,0.022,0,0.022,0,0.022  c-0.367,1.374-1.052,2.038-2.083,1.991c-0.022,0-0.022,0-0.045,0h-4.508c-0.115,0-0.229,0.047-0.32,0.138  c-0.091,0.091-0.138,0.206-0.138,0.32c0,0.115,0.047,0.229,0.138,0.32c0.091,0.092,0.205,0.138,0.32,0.138h4.486  c1.533,0.138,2.54-0.754,3.043-2.678l-0.022,0.023l0.389-1.282c0.298,1.671,1.121,3.135,2.471,4.394h-0.022  c1.717,1.626,3.799,2.449,6.248,2.449c0.114,0,0.207,0,0.321,0V31.285L30.083,31.285z"/>
<path fill="none" stroke="#000000" stroke-width="1.0235" stroke-linecap="round" stroke-linejoin="round" stroke-miterlimit="10" d="  M1.154,22.542c-0.412-0.48-0.618-1.052-0.641-1.717c-0.022-0.685,0.184-1.259,0.619-1.738c0.389-0.48,0.869-0.732,1.464-0.756  l10.207-0.206v4.897L2.666,23.229C2.07,23.229,1.567,23,1.154,22.542L1.154,22.542z M1.154,27.417  c-0.412-0.48-0.618-1.052-0.641-1.717c-0.022-0.687,0.184-1.257,0.619-1.738c0.389-0.481,0.869-0.734,1.464-0.756L12.804,23v4.897  L2.666,28.104C2.07,28.104,1.567,27.875,1.154,27.417L1.154,27.417z M1.154,32.246c-0.412-0.481-0.618-1.054-0.641-1.717  c-0.022-0.687,0.184-1.259,0.619-1.739c0.389-0.479,0.869-0.732,1.464-0.755l10.207-0.206v4.897L2.666,32.933  C2.07,32.933,1.567,32.704,1.154,32.246L1.154,32.246z M1.154,37.052c-0.412-0.481-0.618-1.053-0.641-1.716  c-0.022-0.687,0.184-1.259,0.619-1.74c0.389-0.479,0.869-0.73,1.464-0.754l10.207-0.206v4.897L2.666,37.739  C2.07,37.739,1.567,37.51,1.154,37.052L1.154,37.052z"/>
<text x="-20.151" y="115.825" font-size="5.0" font-weight="bold" font-family="Helvetica Neue, Helvetica, Arial-Unicode, Arial, Sans-serif" fill="#000000">Created by N.K.Narasimhan</text><text x="-20.151" y="120.825" font-size="5.0" font-weight="bold" font-family="Helvetica Neue, Helvetica, Arial-Unicode, Arial, Sans-serif" fill="#000000">from the Noun Project</text></svg>