<svg xmlns="http://www.w3.org/2000/svg" xmlns:xlink="http://www.w3.org/1999/xlink" version="1.1" id="Layer_1" x="0px" y="0px" viewBox="0 0 100 68" enable-background="new 0 0 100 68" xml:space="preserve" height="100px" width="100px">
<g>
	<path d="M49.3,46.4L23.3,34c0,0-3.7,5.8-3.7,12.7c11.5,2.1,25.7,8.8,29.6,14.7c0,0,0,0,0,0c0,0,0,0,0,0c4-5.8,18.1-12.6,29.6-14.7   c0-6.9-3.7-12.7-3.7-12.7L49.3,46.4z"/>
	<path d="M15.1,49.4v-21l34.3,15.3l46.5-21.3L49.4,4.7L1.7,22.4l11.2,5v22c-0.9,0.4-1.5,1.3-1.5,2.4v10.2c0,0.7,0.5,1.2,1.2,1.2h2.8   c0.7,0,1.2-0.5,1.2-1.2V51.7C16.6,50.7,16,49.8,15.1,49.4z"/>
</g>
</svg>