<svg xmlns="http://www.w3.org/2000/svg" xmlns:xlink="http://www.w3.org/1999/xlink" version="1.1" id="Layer_1" x="0px" y="0px" width="100px" height="100px" viewBox="5.0 -10.0 100.0 135.0" enable-background="new 0 0 100 100" xml:space="preserve">
<g>
	<g id="Layer_1_120_">
		<g>
			<g>
				<path fill="#000000" d="M66.2,24.1c-0.2-0.2-0.5-0.4-0.8-0.5l-17.1-5.4c-6.8-2.1-11.3,1.6-12.5,2.8c-0.7,0.7-1.2,1.4-1.5,2.1      L26.8,41c-0.4,1-0.3,2.4,0.4,3.7c1,1.9,2.7,3.3,4.8,3.8c2.4,0.6,4.8-0.2,6.7-2.1c0.5-0.5,0.9-1.1,1.2-1.5l2.6-4.7      c0.4-0.8,1-1.6,1.7-2.2c2.2-2.2,3.2-1.2,3.7-0.8C51.6,40.9,71.7,61,71.7,61c0.7,0.7,0.6,2.1-0.3,3c-0.9,0.9-2.2,1-3,0.3      l-5.6-5.6c-0.7-0.7-1.9-0.7-2.6,0c-0.7,0.7-0.7,1.9,0,2.6l5.6,5.6c0.7,0.7,0.6,2.1-0.3,2.9c-0.9,0.9-2.2,1-3,0.3l-5.6-5.6      c-0.7-0.7-1.9-0.7-2.6,0c-0.7,0.7-0.7,1.9,0,2.6l5.6,5.6c0.7,0.7,0.6,2.1-0.3,3c-0.9,0.9-2.2,1-3,0.3l-5.6-5.6      c-0.7-0.7-1.9-0.7-2.6,0c-0.7,0.7-0.7,1.9,0,2.6l5.6,5.6c0.7,0.7,0.6,2.1-0.3,3c-0.9,0.9-2.2,1-3,0.3l-6.9-6.9      c1-1.5,0.7-3.6-0.7-5.1c-1.6-1.6-4.1-1.8-5.6-0.3c1.4-1.5,1.3-3.9-0.3-5.6c-1.6-1.6-4.1-1.8-5.6-0.3c1.4-1.4,1.3-3.9-0.3-5.6      c-1.6-1.6-4.1-1.8-5.6-0.3c1.5-1.4,1.3-3.9-0.3-5.6c-1.5-1.5-3.8-1.7-5.3-0.6L9,40.7c-0.7-0.7-1.9-0.7-2.6,0      c-0.7,0.7-0.7,1.9,0,2.6l11.1,11.1l-3.3,3.3c-1.4,1.4-1.3,3.9,0.3,5.6c1.6,1.6,4.1,1.8,5.6,0.3c-1.5,1.5-1.3,3.9,0.3,5.6      c1.6,1.6,4.1,1.8,5.6,0.3c-1.5,1.5-1.3,3.9,0.3,5.6c1.6,1.6,4.1,1.8,5.6,0.3c-1.4,1.4-1.3,3.9,0.3,5.6c1.6,1.6,4.1,1.8,5.6,0.3      l3.5-3.5l6.8,6.8c2.2,2.2,5.8,2,8.2-0.3c1.1-1.1,1.8-2.6,1.8-4.1c1.4-0.1,2.9-0.7,4.1-1.8c1.1-1.1,1.8-2.6,1.9-4.1      c1.4-0.1,2.9-0.7,4.1-1.8c1.1-1.1,1.8-2.6,1.8-4.1c1.5-0.1,2.9-0.7,4.1-1.8c2.3-2.3,2.5-6,0.3-8.2l-2.9-2.9l11.8-11.8      c0.7-0.7,0.7-1.9,0-2.6L66.2,24.1z"/>
			</g>
			<g>
				<path fill="#000000" d="M94.1,28.2l-15-15c-1.4-1.5-3.8-1.5-5.2,0l-5.2,5.2c-1.4,1.4-1.4,3.8,0,5.2l15,15c1.5,1.4,3.8,1.4,5.2,0      l5.2-5.2C95.5,32,95.5,29.7,94.1,28.2z M86.2,35.9c-1.7,0-3-1.4-3-3s1.4-3,3-3c1.7,0,3,1.4,3,3C89.2,34.5,87.9,35.9,86.2,35.9z"/>
			</g>
		</g>
	</g>
</g>
<text x="0.0" y="117.5" font-size="5.0" font-weight="bold" font-family="Helvetica Neue, Helvetica, Arial-Unicode, Arial, Sans-serif" fill="#000000">Created by riyazali</text><text x="0.0" y="122.5" font-size="5.0" font-weight="bold" font-family="Helvetica Neue, Helvetica, Arial-Unicode, Arial, Sans-serif" fill="#000000">from the Noun Project</text></svg>